:SAMPLES-PER-SECOND 30
:FULLY-SPECIFIED
:DEGREES
85
root  34.72284933 36.49653337 -14.9407935 8.489949226 -6.382927418 4.140722752
lowerback  -7.028960228 -1.780189991 -1.49375999
upperback  -4.610519886 -1.785269976 -3.684509993
thorax  -0.8907610178 -0.6960350275 -3.07494998
lowerneck  -0.3455849886 -18.15859985 -13.40439987
upperneck  10.91530037 -25.48130035 14.12940025
head  6.929759979 -12.18000031 4.226630211
lclavicle  0 -4.497500157e-015 -2.743230041e-014
lhumerus  -50.45270157 29.52429962 61.59550095
lradius  0.001595117152 -6.507048965e-006 30.48200226
lwrist  4.824992743e-007 -3.790274832e-007 -28.4076004
lhand  -4.418694368e-031 -36.95259857 -10.66810036
lfingers  90 7.125020027 -90
lthumb  94.83921564 -25.50214307 101.1246161
rclavicle  0 -4.497500157e-015 -2.743230041e-014
rhumerus  -49.90330124 -34.77150345 4.078633308
rradius  -5.16745672e-007 2.214343908e-008 100.8710022
rwrist  -0.0001011603963 -0.001600692281 178.3099976
rhand  -1.770395464e-031 4.234549999 -7.216599941
rfingers  -90 -7.125020027 -90
rthumb  -84.94977575 -8.794501076 -59.97179931
rfemur  -13.2007103 16.35853767 12.56793404
rtibia  -1.739573717 -1.53742373 21.9654274
rfoot  -0.1019902006 -22.70728302 -35.41096115
rtoes  4.162433661 19.57943064 -102.2526139
lfemur  -8.283650398 -17.07693672 -20.97645569
ltibia  2.721598625 -1.679388285 14.97774601
lfoot  1.151506066 -22.32949638 38.25083923
ltoes  -8.543223675 -18.15144956 -115.74376
86
root  34.72250691 36.49902344 -14.93964608 8.528071404 -6.383150101 4.16420269
lowerback  -7.017669678 -1.805950046 -1.535770297
upperback  -4.590479851 -1.819129944 -3.677170038
thorax  -0.876011014 -0.7128279805 -3.045609951
lowerneck  -0.2739599943 -18.2052002 -13.43330002
upperneck  10.81029987 -25.55690002 14.24810028
head  6.915369987 -12.21710014 4.261630058
lclavicle  0 -4.497500157e-015 -2.743230041e-014
lhumerus  -50.4939003 29.64159966 61.47079849
lradius  0.001595117152 -6.507048965e-006 30.44549751
lwrist  4.824992743e-007 -3.790274832e-007 -28.55480003
lhand  -4.416312412e-031 -36.91149902 -10.67179966
lfingers  90 7.125020027 -90
lthumb  94.82076045 -25.50724672 101.0810285
rclavicle  0 -4.497500157e-015 -2.743230041e-014
rhumerus  -49.20600128 -35.06719971 4.413570404
rradius  -5.16745672e-007 2.214343908e-008 99.9457016
rwrist  -0.0001011603963 -0.001600692281 178.2539978
rhand  -1.768881129e-031 3.510220051 -7.016839981
rfingers  -90 -7.125020027 -90
rthumb  -85.01756694 -8.923608911 -60.66297225
rfemur  -13.24550056 16.2868576 12.54363632
rtibia  -1.756349802 -1.583541512 21.97687149
rfoot  -0.09250514209 -22.76215172 -35.3299942
rtoes  4.136178688 19.58478492 -102.1742777
lfemur  -8.319696426 -17.07238579 -20.9994278
ltibia  2.746183395 -1.692860126 14.97121334
lfoot  1.181453943 -22.29933929 38.27805328
ltoes  -8.575402162 -18.13667037 -115.8470924
87
root  34.72206837 36.5005373 -14.93816976 8.562257767 -6.38278532 4.186722755
lowerback  -7.000150204 -1.818300009 -1.550040245
upperback  -4.583809853 -1.835549951 -3.684309959
thorax  -0.8792639971 -0.7209560275 -3.045589924
lowerneck  -0.1869930029 -18.26079941 -13.45460033
upperneck  10.70860004 -25.64370155 14.34619999
head  6.89729023 -12.26119995 4.289480209
lclavicle  0 -4.497500157e-015 -2.743230041e-014
lhumerus  -50.58409882 29.81579971 61.37670135
lradius  0.001595117152 -6.507048965e-006 30.42970085
lwrist  4.824992743e-007 -3.790274832e-007 -28.7670002
lhand  -0 -36.94120026 -10.68400002
lfingers  90 7.125020027 -90
lthumb  94.83727609 -25.51818166 101.1138888
rclavicle  0 -4.497500157e-015 -2.743230041e-014
rhumerus  -48.41979599 -35.29499435 4.635697365
rradius  -5.16745672e-007 2.214343908e-008 99.07849884
rwrist  -0.0001011603963 -0.001600692281 178.8079987
rhand  -1.768659868e-031 3.391360044 -6.624070168
rfingers  -90 -7.125020027 -90
rthumb  -84.85067893 -9.259194994 -60.74823972
rfemur  -13.29367065 16.21171761 12.51802444
rtibia  -1.77101922 -1.624616981 22.00022125
rfoot  -0.08759849519 -22.81839371 -35.25958252
rtoes  4.128229506 19.58639901 -102.150564
lfemur  -8.363363266 -17.13997459 -21.01677132
ltibia  2.755877495 -1.726044297 14.97668552
lfoot  1.182279587 -22.22816658 38.29368591
ltoes  -8.582268134 -18.13350793 -115.8691512
88
root  34.72159378 36.50039012 -14.93674451 8.59640789 -6.382194996 4.198242664
lowerback  -6.978209972 -1.831680059 -1.566329718
upperback  -4.57325983 -1.854329944 -3.683300018
thorax  -0.8806570172 -0.7305549979 -3.03599
lowerneck  -0.1188319996 -18.3057003 -13.53979969
upperneck  10.62020016 -25.71749878 14.46119976
head  6.895619869 -12.29959965 4.328549862
lclavicle  0 -4.497500157e-015 -2.743230041e-014
lhumerus  -50.59889984 29.80310059 61.38909912
lradius  0.001595117152 -6.507048965e-006 30.40620041
lwrist  4.824992743e-007 -3.790274832e-007 -28.78770065
lhand  -4.418033285e-031 -36.94120026 -10.73639965
lfingers  90 7.125020027 -90
lthumb  94.84847347 -25.5695991 101.1187171
rclavicle  0 -4.497500157e-015 -2.743230041e-014
rhumerus  -47.6896019 -35.46860123 4.896649361
rradius  -5.16745672e-007 2.214343908e-008 98.18659973
rwrist  -0.0001011603963 -0.001600692281 179.3079987
rhand  -1.769182574e-031 3.665920019 -6.891389847
rfingers  -90 -7.125020027 -90
rthumb  -84.91906225 -9.042098014 -60.50128079
rfemur  -13.3423233 16.16685295 12.50258541
rtibia  -1.778429627 -1.625674248 22.02603531
rfoot  -0.08826301247 -22.80307007 -35.20365143
rtoes  4.161546952 19.57961205 -102.2499679
lfemur  -8.358035088 -17.15984917 -21.04096031
ltibia  2.795859098 -1.712993264 14.92610836
lfoot  1.212634802 -22.23141479 38.35654831
ltoes  -8.535409597 -18.15502803 -115.7186794
